# xmcd
#
# Track frame offsets:
#	150
#	16382
#	34722
#	50929
#	64892
#	84355
#	101684
#	120999
#	141153
#	162749
#	179312
#	196417
#	215839
#	234020
#	253381
#	281167
#
# Disc length: 3763 seconds
#
# Revision: 1
# Processed by: cddbd v1.5.2PL0 Copyright (c) Steve Scherf et al.
# Submitted via: audiograbber 1.83.01
#
DISCID=f00eb110
DTITLE=Shania Twain (in the style of) - Chartbuster Karaoke - Country Artist Se
DTITLE=ries - Song in the style of Shania Twain - Volume 3
DYEAR=1900
DGENRE=Country
TTITLE0=Party For Two
TTITLE1=She's Not Just A Pretty Face
TTITLE2=It Only Hurts When I'm Breathing
TTITLE3=Up!
TTITLE4=I'm Gonna Getcha Good
TTITLE5=I Ain't No Quitter
TTITLE6=Thank You, Baby! (For Makin' Someday Come...)
TTITLE7=Nah!
TTITLE8=(Wanna Get To Know You) That Good!
TTITLE9=I'm Not In The Mood (To Say No)!
TTITLE10=What A Way To Wanna Be!
TTITLE11=When You Kiss Me
TTITLE12=I Ain't Goin' Down
TTITLE13=I'm Jealous
TTITLE14=Waiter! Bring Me Water!
TTITLE15=DATA
EXTD=
EXTT0=
EXTT1=
EXTT2=
EXTT3=
EXTT4=
EXTT5=
EXTT6=
EXTT7=
EXTT8=
EXTT9=
EXTT10=
EXTT11=
EXTT12=
EXTT13=
EXTT14=
EXTT15=
PLAYORDER=
